<svg width="14" height="16" viewBox="0 0 14 16" fill="none" xmlns="http://www.w3.org/2000/svg">
<path d="M2.0502 15.1998C1.67895 15.1998 1.36113 15.0654 1.09676 14.7967C0.832383 14.5279 0.700195 14.2123 0.700195 13.8498V3.9498C0.700195 3.5873 0.832383 3.27168 1.09676 3.00293C1.36113 2.73418 1.67895 2.5998 2.0502 2.5998H3.4002V0.799805H4.7502V2.5998H9.2502V0.799805H10.6002V2.5998H11.9502C12.3214 2.5998 12.6393 2.73418 12.9036 3.00293C13.168 3.27168 13.3002 3.5873 13.3002 3.9498V13.8498C13.3002 14.2123 13.168 14.5279 12.9036 14.7967C12.6393 15.0654 12.3214 15.1998 11.9502 15.1998H2.0502ZM2.0502 13.8498H11.9502V7.0998H2.0502V13.8498ZM2.0502 5.7498H11.9502V3.9498H2.0502V5.7498ZM7.00415 9.7998C6.81401 9.7998 6.65332 9.7355 6.52207 9.60688C6.39082 9.47826 6.3252 9.31889 6.3252 9.12876C6.3252 8.93862 6.3895 8.77793 6.51811 8.64668C6.64674 8.51543 6.80611 8.4498 6.99624 8.4498C7.18638 8.4498 7.34707 8.51411 7.47832 8.64272C7.60957 8.77135 7.6752 8.93072 7.6752 9.12085C7.6752 9.31099 7.61089 9.47168 7.48228 9.60293C7.35365 9.73418 7.19428 9.7998 7.00415 9.7998ZM4.07915 9.7998C3.88901 9.7998 3.72832 9.7355 3.59707 9.60688C3.46582 9.47826 3.4002 9.31889 3.4002 9.12876C3.4002 8.93862 3.4645 8.77793 3.59311 8.64668C3.72174 8.51543 3.88111 8.4498 4.07124 8.4498C4.26138 8.4498 4.42207 8.51411 4.55332 8.64272C4.68457 8.77135 4.7502 8.93072 4.7502 9.12085C4.7502 9.31099 4.68589 9.47168 4.55728 9.60293C4.42865 9.73418 4.26928 9.7998 4.07915 9.7998ZM9.92915 9.7998C9.73901 9.7998 9.57832 9.7355 9.44707 9.60688C9.31582 9.47826 9.2502 9.31889 9.2502 9.12876C9.2502 8.93862 9.3145 8.77793 9.44311 8.64668C9.57174 8.51543 9.73111 8.4498 9.92124 8.4498C10.1114 8.4498 10.2721 8.51411 10.4033 8.64272C10.5346 8.77135 10.6002 8.93072 10.6002 9.12085C10.6002 9.31099 10.5359 9.47168 10.4073 9.60293C10.2787 9.73418 10.1193 9.7998 9.92915 9.7998ZM7.00415 12.4998C6.81401 12.4998 6.65332 12.4355 6.52207 12.3069C6.39082 12.1783 6.3252 12.0189 6.3252 11.8288C6.3252 11.6386 6.3895 11.4779 6.51811 11.3467C6.64674 11.2154 6.80611 11.1498 6.99624 11.1498C7.18638 11.1498 7.34707 11.2141 7.47832 11.3427C7.60957 11.4713 7.6752 11.6307 7.6752 11.8208C7.6752 12.011 7.61089 12.1717 7.48228 12.3029C7.35365 12.4342 7.19428 12.4998 7.00415 12.4998ZM4.07915 12.4998C3.88901 12.4998 3.72832 12.4355 3.59707 12.3069C3.46582 12.1783 3.4002 12.0189 3.4002 11.8288C3.4002 11.6386 3.4645 11.4779 3.59311 11.3467C3.72174 11.2154 3.88111 11.1498 4.07124 11.1498C4.26138 11.1498 4.42207 11.2141 4.55332 11.3427C4.68457 11.4713 4.7502 11.6307 4.7502 11.8208C4.7502 12.011 4.68589 12.1717 4.55728 12.3029C4.42865 12.4342 4.26928 12.4998 4.07915 12.4998ZM9.92915 12.4998C9.73901 12.4998 9.57832 12.4355 9.44707 12.3069C9.31582 12.1783 9.2502 12.0189 9.2502 11.8288C9.2502 11.6386 9.3145 11.4779 9.44311 11.3467C9.57174 11.2154 9.73111 11.1498 9.92124 11.1498C10.1114 11.1498 10.2721 11.2141 10.4033 11.3427C10.5346 11.4713 10.6002 11.6307 10.6002 11.8208C10.6002 12.011 10.5359 12.1717 10.4073 12.3029C10.2787 12.4342 10.1193 12.4998 9.92915 12.4998Z" fill="#e5e7eb"/>
</svg>
