<svg width="14" height="14" viewBox="0 0 14 14" fill="none" xmlns="http://www.w3.org/2000/svg">
<path opacity="0.85" d="M9.17292 9.81042L10.076 8.90729L7.4375 6.26875V2.55H6.1625V6.8L9.17292 9.81042ZM6.8 13.6C5.86292 13.6 4.9823 13.4229 4.15813 13.0688C3.33396 12.7146 2.61198 12.2276 1.99219 11.6078C1.3724 10.988 0.885417 10.2652 0.53125 9.43929C0.177083 8.61338 0 7.73092 0 6.79189C0 5.85285 0.177083 4.97014 0.53125 4.14375C0.885417 3.31736 1.3724 2.59722 1.99219 1.98333C2.61198 1.36944 3.33482 0.885417 4.16071 0.53125C4.98662 0.177083 5.86908 0 6.80811 0C7.74715 0 8.6299 0.1785 9.45636 0.5355C10.2828 0.8925 11.0017 1.377 11.6131 1.989C12.2245 2.601 12.7084 3.32067 13.0651 4.148C13.4217 4.97533 13.6 5.85933 13.6 6.8C13.6 7.73708 13.4229 8.6177 13.0688 9.44187C12.7146 10.266 12.2306 10.988 11.6167 11.6078C11.0028 12.2276 10.2819 12.7146 9.45393 13.0688C8.62599 13.4229 7.74135 13.6 6.8 13.6ZM6.80845 12.325C8.33699 12.325 9.63856 11.7849 10.7131 10.7047C11.7877 9.62448 12.325 8.3201 12.325 6.79155C12.325 5.26301 11.7877 3.96144 10.7131 2.88687C9.63856 1.81229 8.33699 1.275 6.80845 1.275C5.2799 1.275 3.97552 1.81229 2.89531 2.88687C1.8151 3.96144 1.275 5.26301 1.275 6.79155C1.275 8.3201 1.8151 9.62448 2.89531 10.7047C3.97552 11.7849 5.2799 12.325 6.80845 12.325Z" fill="#e5e7eb"/>
</svg>
