<svg width="68" height="72" viewBox="0 0 68 72" fill="none" xmlns="http://www.w3.org/2000/svg">
<g clip-path="url(#clip0_1_402)">
<path fill-rule="evenodd" clip-rule="evenodd" d="M44.0664 21.7773C44.0873 21.8346 44.1083 21.8919 44.1298 21.9492C44.1179 21.8878 44.1059 21.8269 44.0939 21.7654C44.085 21.7702 44.076 21.7737 44.0664 21.7773Z" fill="#DABC75"/>
<path fill-rule="evenodd" clip-rule="evenodd" d="M47.6065 13.5704C45.8727 13.1287 44.5069 13.6301 43.7483 13.9548C41.0812 8.0095 42.1581 9.06068 35.4821 5.00998C34.2323 4.25189 32.6116 3.34576 31.5401 2.63901C29.8901 1.55142 27.1099 -0.610632 26.3717 0.163574C25.3421 1.24281 32.0582 5.96624 33.7974 7.05682L32.4949 4.79926C34.6529 5.7615 38.5936 7.68955 40.1168 9.45286C42.6259 12.3581 42.8844 16.1217 43.2356 19.9778C43.2356 19.9778 43.7878 19.2662 44.4662 18.4819C44.8084 23.2429 45.156 25.1023 42.7773 28.5227C41.3977 30.508 39.0741 31.647 36.1216 32.7202C37.3822 31.0811 38.7941 27.7007 39.2894 26.1905C39.2894 26.1905 39.5467 27.1999 39.5222 28.8337C39.8608 28.7573 41.774 21.4993 36.5631 15.517C37.9469 20.4708 38.7941 22.6926 36.7067 27.77C33.1303 38.3486 19.6029 50.0954 18.5703 53.4334C20.4417 52.8771 25.2595 47.3376 26.529 45.5857L33.3558 37.1046C32.2676 39.1252 27.363 47.3764 27.0202 49.8519C29.5263 47.2654 34.1013 36.8002 37.9445 33.7278C37.9445 33.7278 39.637 32.4767 40.1067 32.1818C43.6328 29.9649 44.6768 27.8756 45.3217 25.9016C45.6203 24.9889 45.7914 24.0404 45.8428 23.0818C45.8829 22.3368 45.8877 21.5906 45.8578 20.8445C45.9338 19.8852 46.1222 19.0096 46.94 18.5929C48.3418 17.879 50.2933 18.2067 50.2933 18.2067C50.2933 18.2067 50.3125 14.2611 47.6059 13.5716L47.6065 13.5704Z" fill="#DABC75"/>
<path fill-rule="evenodd" clip-rule="evenodd" d="M29.3816 32.0386C30.7845 32.4308 33.5862 27.1612 33.5862 24.2601C33.5862 24.2601 27.9786 31.6464 29.3816 32.0386Z" fill="#DABC75"/>
<path fill-rule="evenodd" clip-rule="evenodd" d="M26.3629 32.1354C29.1568 30.3936 31.1861 25.3018 31.1861 25.3018C31.1861 25.3018 26.1828 30.0491 25.621 31.4865C25.438 31.9551 25.9351 32.4022 26.3629 32.1354Z" fill="#DABC75"/>
<path fill-rule="evenodd" clip-rule="evenodd" d="M36.2006 10.7991C35.0047 9.46974 26.9957 4.17565 26.2233 5.75451C25.3367 7.56736 36.2006 10.7991 36.2006 10.7991Z" fill="#DABC75"/>
<path fill-rule="evenodd" clip-rule="evenodd" d="M21.5818 32.2624C22.7 33.1757 26.7783 29.2008 27.9784 26.8227C27.6033 26.9618 20.2369 31.1641 21.5818 32.2624Z" fill="#DABC75"/>
<path fill-rule="evenodd" clip-rule="evenodd" d="M24.7001 27.7966C24.7001 27.7966 16.383 29.8202 17.3845 31.334C18.091 32.4019 23.4772 29.1134 24.7001 27.7966Z" fill="#DABC75"/>
<path fill-rule="evenodd" clip-rule="evenodd" d="M28.462 11.4291C28.2328 13.2449 36.0665 13.1709 36.0665 13.1709C34.867 12.2236 28.6911 9.61323 28.462 11.4291Z" fill="#DABC75"/>
<path fill-rule="evenodd" clip-rule="evenodd" d="M34.2774 28.5204C35.5864 28.5204 36.1823 25.9811 35.7234 23.4424C35.7234 23.4424 33.1084 28.5204 34.2774 28.5204Z" fill="#DABC75"/>
<path fill-rule="evenodd" clip-rule="evenodd" d="M31.8227 18.6306C31.4757 18.7918 31.5128 19.292 31.8771 19.4096C33.3147 19.8722 36.5741 18.1251 36.5741 18.1251C36.5741 18.1251 32.9773 18.0952 31.8227 18.6306Z" fill="#DABC75"/>
<path fill-rule="evenodd" clip-rule="evenodd" d="M32.9331 22.149C33.5433 23.1536 36.9821 20.4269 36.9821 20.4269C36.6812 20.4561 32.3253 21.1486 32.9331 22.149Z" fill="#DABC75"/>
<path fill-rule="evenodd" clip-rule="evenodd" d="M30.1289 15.7098C30.1289 17.2414 36.2396 15.7712 36.0643 15.7378C36.0643 15.7378 30.1289 14.1781 30.1289 15.7098Z" fill="#DABC75"/>
<path d="M0 63.8167C0.297936 64.5873 0.765779 65.2332 1.40293 65.7537C2.04008 66.2742 2.78552 66.5344 3.63925 66.5344C3.92402 66.5344 4.2423 66.5141 4.59468 66.4736C4.94705 66.433 5.2755 66.3488 5.58062 66.2199C5.88573 66.0915 6.14299 65.9089 6.35298 65.6725C6.56297 65.4361 6.66826 65.1281 6.66826 64.7497C6.66826 64.3169 6.50553 63.9623 6.18008 63.6847C5.85462 63.4078 5.45139 63.1606 4.97039 62.9446C4.48938 62.7285 3.9671 62.5255 3.40532 62.3363C2.84296 62.1471 2.32067 61.9238 1.83966 61.6671C1.35866 61.4105 0.955429 61.0959 0.629973 60.724C0.304517 60.3521 0.141789 59.8824 0.141789 59.3141C0.141789 58.8407 0.236315 58.4289 0.426563 58.0767C0.616213 57.7251 0.863895 57.4308 1.16841 57.1944C1.47353 56.958 1.8289 56.7784 2.23572 56.6566C2.64254 56.5348 3.05534 56.4739 3.47592 56.4739C3.67933 56.4739 3.93658 56.4942 4.24828 56.5348C4.55998 56.5754 4.88184 56.6333 5.21388 56.7073C5.54592 56.782 5.86778 56.8595 6.17948 56.9407C6.49118 57.0219 6.73527 57.1031 6.91116 57.1843V59.0908C6.78911 58.7255 6.60963 58.3948 6.37272 58.097C6.13521 57.7997 5.85761 57.546 5.53934 57.3365C5.22046 57.127 4.87526 56.961 4.50254 56.8399C4.12982 56.7181 3.76069 56.6572 3.39456 56.6572C3.1367 56.6572 2.85911 56.6948 2.56117 56.7688C2.26264 56.8434 1.98863 56.9551 1.73796 57.1037C1.48669 57.2523 1.28029 57.4386 1.11816 57.6612C0.956028 57.8839 0.874065 58.1513 0.874065 58.4623C0.874065 58.9494 1.03679 59.3517 1.36225 59.6693C1.68771 59.9868 2.09034 60.2608 2.57194 60.4906C3.05295 60.7204 3.57822 60.93 4.14717 61.1192C4.71612 61.309 5.2414 61.5251 5.7224 61.768C6.20341 62.0116 6.60664 62.3088 6.9321 62.6604C7.25755 63.012 7.42028 63.4651 7.42028 64.0196C7.42028 64.5742 7.31499 64.9902 7.105 65.3484C6.895 65.7071 6.6204 65.9978 6.28178 66.2205C5.94257 66.4437 5.55669 66.6025 5.12294 66.6974C4.6892 66.7917 4.24888 66.8395 3.80138 66.8395C3.20491 66.8395 2.56476 66.7816 1.88035 66.667C1.19593 66.5524 0.56895 66.4067 0 66.2306V63.8167H0Z" fill="#DABC75"/>
<path d="M8.29297 71.9871C8.68603 71.8653 8.94986 71.4701 9.08567 71.1591C9.22088 70.8481 9.28908 70.5031 9.28908 70.1247V59.093C9.28908 58.8363 9.24122 58.5993 9.14669 58.3832C9.05157 58.1671 8.84816 58.0454 8.53706 58.0179L10.4276 56.5978V63.7985C10.4276 64.1775 10.5221 64.5387 10.7124 64.8837C10.902 65.2287 11.1461 65.5296 11.444 65.7862C11.742 66.0429 12.0776 66.2459 12.4503 66.3945C12.823 66.5437 13.1922 66.6178 13.5583 66.6178C14.1949 66.6178 14.7303 66.4554 15.164 66.1307C15.5978 65.8059 15.9466 65.3971 16.211 64.9034C16.4754 64.4097 16.6687 63.8725 16.7901 63.2911C16.9122 62.7097 16.9732 62.1623 16.9732 61.6484C16.9732 61.1344 16.9152 60.5871 16.8003 60.0457C16.6848 59.5048 16.4952 59.0112 16.2313 58.5653C15.9669 58.1194 15.6217 57.7541 15.1946 57.4699C14.7674 57.1858 14.2421 57.0443 13.6193 57.0443C13.0504 57.0443 12.5688 57.1422 12.1757 57.3386C11.7826 57.535 11.383 57.8287 10.9762 58.2209C11.3016 57.7206 11.7348 57.3183 12.2774 57.0139C12.8194 56.7095 13.3956 56.5573 14.0052 56.5573C14.6824 56.5573 15.2825 56.679 15.8042 56.9226C16.3259 57.1661 16.7698 57.4974 17.1359 57.9164C17.5021 58.3355 17.7797 58.8291 17.9693 59.3968C18.159 59.9645 18.2541 60.5668 18.2541 61.2019C18.2541 61.9457 18.1554 62.659 17.9591 63.3419C17.7623 64.0247 17.4644 64.6228 17.0647 65.1368C16.6651 65.6507 16.1602 66.0596 15.5499 66.3641C14.9403 66.6685 14.2284 66.8207 13.4153 66.8207C13.0899 66.8207 12.7955 66.7968 12.5311 66.7497C12.2666 66.7025 12.0196 66.6279 11.7892 66.5264C11.5589 66.425 11.3351 66.2966 11.1186 66.1408C10.9014 65.9856 10.6711 65.8059 10.4276 65.6036V70.145C10.4276 70.5371 10.4886 70.8816 10.6106 71.1794C10.7327 71.4767 10.9971 71.8653 11.4033 71.9871H8.29297Z" fill="#DABC75"/>
<path d="M25.5139 60.7525V59.6774C25.5139 59.3527 25.4798 59.0214 25.4122 58.6836C25.344 58.3457 25.2327 58.0383 25.0766 57.7607C24.9204 57.4838 24.7104 57.2569 24.4466 57.0814C24.1822 56.9059 23.8537 56.8176 23.4607 56.8176C23.2842 56.8176 23.0742 56.8415 22.8307 56.8886C22.5866 56.9364 22.3598 57.0104 22.1499 57.1119C21.9399 57.2134 21.7604 57.3417 21.6114 57.4975C21.4619 57.6533 21.3877 57.8461 21.3877 58.0759C21.3877 58.2245 21.4044 58.3666 21.4385 58.5015C21.472 58.637 21.4894 58.7791 21.4894 58.9277C21.4894 59.4279 21.2315 59.678 20.717 59.678C20.4861 59.678 20.3102 59.5969 20.1887 59.4345C20.0673 59.2721 20.0057 59.0829 20.0057 58.8668C20.0057 58.5152 20.1409 58.2007 20.4125 57.9237C20.6835 57.6467 21.012 57.4097 21.3984 57.2139C21.7849 57.0182 22.1846 56.8659 22.598 56.7573C23.0114 56.6493 23.3601 56.5949 23.6449 56.5949C24.3359 56.5949 24.8815 56.6899 25.2812 56.8791C25.6808 57.0689 25.9823 57.3321 26.1858 57.67C26.3892 58.0085 26.5178 58.4173 26.5722 58.8973C26.6261 59.3772 26.6536 59.9084 26.6536 60.4893C27.2632 60.3406 27.8633 60.1615 28.4526 59.9514C29.0419 59.7419 29.6144 59.4817 30.1702 59.1707C30.1702 59.0626 30.163 58.9343 30.1499 58.785C30.1361 58.6364 30.1056 58.4979 30.0583 58.369C30.0105 58.2407 29.9429 58.129 29.8549 58.0341C29.7664 57.9398 29.6479 57.8921 29.4989 57.8921L31.3284 56.614V58.4394C31.5588 58.2771 31.7891 58.0878 32.0194 57.8718C32.2498 57.6557 32.4939 57.4527 32.7511 57.2629C33.0084 57.0737 33.2764 56.9149 33.554 56.7866C33.8316 56.6582 34.1199 56.5938 34.4179 56.5938C34.6345 56.5938 34.8277 56.6445 34.997 56.746C35.1663 56.8474 35.2513 57.0134 35.2513 57.2432C35.2513 57.7166 35.0006 57.9529 34.4992 57.9529C34.3904 57.9529 34.2922 57.9326 34.2043 57.8921C34.1158 57.8515 34.0278 57.8109 33.9399 57.7703C33.8513 57.7297 33.7532 57.6891 33.6449 57.6485C33.536 57.6079 33.4074 57.5876 33.2584 57.5876C33.0688 57.5876 32.872 57.6354 32.6691 57.7297C32.4657 57.8246 32.2898 57.9326 32.1409 58.0544C31.6126 58.5003 31.0736 58.8829 30.525 59.2005C29.9764 59.5187 29.4098 59.7921 28.8277 60.0219C28.245 60.2523 27.6449 60.4445 27.0287 60.6003C26.4119 60.7561 25.7718 60.9077 25.1077 61.0563C24.6739 61.1512 24.2163 61.2694 23.7353 61.4115C23.2543 61.5536 22.8133 61.7428 22.4137 61.9792C22.014 62.2161 21.682 62.517 21.4176 62.8817C21.1531 63.247 21.0209 63.7067 21.0209 64.2612C21.0209 64.8969 21.2106 65.3971 21.5899 65.7619C21.9692 66.1272 22.4705 66.3092 23.0939 66.3092C23.5139 66.3092 23.8968 66.2352 24.2426 66.086C24.5884 65.9374 24.93 65.7481 25.2692 65.5183C24.9168 65.9511 24.4933 66.2686 23.9985 66.4716C23.5037 66.6746 22.9785 66.776 22.4233 66.776C22.044 66.776 21.6814 66.7223 21.3356 66.6137C20.9898 66.5056 20.6883 66.3468 20.431 66.1367C20.1732 65.9272 19.9704 65.6669 19.8214 65.3559C19.6718 65.045 19.5977 64.6868 19.5977 64.2809C19.5977 63.6858 19.8214 63.1826 20.2683 62.7695C20.7158 62.357 21.2543 62.0126 21.8842 61.735C22.5142 61.4581 23.1651 61.2414 23.8358 61.0862C24.5064 60.931 25.0658 60.8194 25.5127 60.7513L25.5139 60.7525ZM25.5139 61.4013C25.7035 61.3476 25.8932 61.2999 26.0828 61.2593C26.2725 61.2187 26.4621 61.1781 26.6518 61.1375V64.8289C26.6518 65.1399 26.7194 65.427 26.8552 65.6908C26.9904 65.9547 27.2417 66.086 27.6072 66.086C27.7562 66.086 27.895 66.0693 28.0242 66.0352C28.1528 66.0018 28.2713 65.9308 28.3802 65.8221C28.3395 65.9439 28.2683 66.0621 28.1666 66.1773C28.0649 66.2925 27.9464 66.394 27.8106 66.4817C27.6748 66.5701 27.5295 66.6411 27.3733 66.6948C27.2172 66.7486 27.0784 66.776 26.9563 66.776C26.6578 66.776 26.4143 66.7223 26.2246 66.6137C26.035 66.5056 25.8854 66.3636 25.7771 66.1875C25.6683 66.012 25.5977 65.8054 25.5636 65.5691C25.5295 65.3327 25.5127 65.0855 25.5127 64.8289V61.4008L25.5139 61.4013ZM29.1932 66.736C29.5863 66.5874 29.8471 66.3707 29.9758 66.0866C30.1044 65.8025 30.169 65.4646 30.169 65.0724V59.9001C30.2366 59.8595 30.3245 59.8088 30.4334 59.7479C30.5417 59.687 30.6536 59.6195 30.7691 59.5449C30.8839 59.4709 30.9928 59.3963 31.0945 59.3217C31.1962 59.2477 31.274 59.1832 31.3284 59.1289V65.0718C31.3284 65.464 31.3925 65.7953 31.5217 66.0657C31.6503 66.3361 31.9046 66.5593 32.2839 66.7348H29.1938L29.1932 66.736Z" fill="#DABC75"/>
<path d="M35.8404 66.7349C36.2335 66.6131 36.4943 66.4 36.623 66.0956C36.7516 65.7911 36.8162 65.4503 36.8162 65.0712V59.1283C36.8162 59.0203 36.809 58.8949 36.7959 58.7528C36.7821 58.6108 36.7516 58.4723 36.7043 58.3368C36.6565 58.2019 36.5889 58.0902 36.5009 58.0019C36.4124 57.9142 36.2939 57.87 36.145 57.87L37.9745 56.592V65.0706C37.9745 65.4491 38.0421 65.7905 38.1779 66.095C38.3131 66.3994 38.5709 66.6125 38.9502 66.7343H35.8398L35.8404 66.7349ZM39.9063 57.587C39.6484 57.587 39.4013 57.6378 39.1644 57.7393C38.9269 57.8407 38.7001 57.9595 38.4836 58.0944C38.6732 57.9052 38.8599 57.7225 39.0424 57.5465C39.2254 57.371 39.4217 57.2086 39.6316 57.06C39.8416 56.9113 40.0654 56.7931 40.3023 56.7048C40.5392 56.617 40.8007 56.5729 41.0848 56.5729C41.2882 56.5729 41.4779 56.6272 41.6538 56.7352C41.8297 56.8439 41.9182 57.0128 41.9182 57.2426C41.9182 57.4724 41.847 57.6449 41.7046 57.7596C41.5623 57.8748 41.3828 57.9321 41.1662 57.9321C40.9765 57.9321 40.7869 57.8748 40.5972 57.7596C40.4076 57.6449 40.1773 57.587 39.9063 57.587Z" fill="#DABC75"/>
<path d="M42.082 61.6687C42.082 60.9655 42.2172 60.3065 42.4889 59.6911C42.7599 59.0757 43.1254 58.5349 43.5867 58.0687C44.0473 57.6019 44.5858 57.2336 45.2026 56.9632C45.8194 56.6928 46.4799 56.5573 47.1846 56.5573C47.8894 56.5573 48.5535 56.6928 49.1769 56.9632C49.8002 57.2336 50.3423 57.5989 50.8029 58.0585C51.2636 58.5181 51.6262 59.0595 51.8906 59.6809C52.155 60.3029 52.2872 60.9655 52.2872 61.6687C52.2872 62.3719 52.155 63.0309 51.8906 63.6463C51.6262 64.2617 51.2636 64.8025 50.8029 65.2687C50.3423 65.7355 49.8032 66.1038 49.187 66.3742C48.5702 66.6452 47.9097 66.7801 47.205 66.7801C46.5002 66.7801 45.8361 66.6452 45.2128 66.3742C44.5894 66.1038 44.0467 65.7391 43.5867 65.2789C43.126 64.8192 42.7599 64.2784 42.4889 63.6564C42.2178 63.0344 42.082 62.3719 42.082 61.6687ZM43.2816 61.2831C43.2816 61.8645 43.3761 62.4662 43.5663 63.0882C43.756 63.7102 44.027 64.2713 44.3794 64.7715C44.7317 65.2717 45.1685 65.6842 45.6908 66.0089C46.2125 66.3336 46.8053 66.4954 47.4694 66.4954C48.0659 66.4954 48.584 66.3635 49.0249 66.0996C49.4652 65.8358 49.8344 65.4914 50.1329 65.0652C50.4308 64.639 50.6546 64.1662 50.8035 63.6451C50.9525 63.1246 51.0273 62.6005 51.0273 62.0734C51.0273 61.4789 50.9322 60.8736 50.7425 60.2582C50.5529 59.6433 50.2819 59.0816 49.9295 58.5748C49.5771 58.0681 49.1398 57.6556 48.6181 57.3374C48.0964 57.0199 47.5029 56.8611 46.8394 56.8611C46.2567 56.8611 45.7416 56.993 45.2941 57.2568C44.8466 57.5207 44.4739 57.8651 44.176 58.2913C43.8774 58.7175 43.6543 59.1909 43.5053 59.7114C43.3557 60.2319 43.2816 60.756 43.2816 61.2831Z" fill="#DABC75"/>
<path d="M52.2461 56.5943H55.3565C55.1531 56.6755 55.0005 56.8009 54.8988 56.9698C54.7971 57.1387 54.7462 57.3315 54.7462 57.5476C54.7462 57.6563 54.8138 57.8891 54.9497 58.2472C55.0849 58.606 55.2613 59.028 55.4779 59.5151C55.6945 60.0016 55.932 60.5227 56.1893 61.0766C56.4465 61.6312 56.6906 62.1618 56.9209 62.6686C57.1513 63.176 57.3613 63.6255 57.5509 64.0177C57.7406 64.4098 57.8692 64.6868 57.9374 64.8492L59.7872 60.2654L58.8928 58.2371C58.7301 57.8718 58.5506 57.5476 58.3544 57.2635C58.1575 56.9794 57.8632 56.7567 57.4701 56.5943H60.5805C60.3771 56.6755 60.2246 56.8009 60.1228 56.9698C60.0211 57.1387 59.9703 57.3315 59.9703 57.5476C59.9703 57.6563 60.0379 57.8891 60.1737 58.2472C60.3089 58.606 60.4854 59.028 60.702 59.5151C60.9185 60.0016 61.1561 60.5227 61.4133 61.0766C61.6706 61.6312 61.9147 62.1618 62.145 62.6686C62.3753 63.176 62.5853 63.6255 62.775 64.0177C62.9646 64.4098 63.0932 64.6868 63.1614 64.8492L65.7633 58.4191C65.8309 58.2436 65.865 58.0675 65.865 57.8921C65.865 57.5811 65.7836 57.3005 65.6209 57.0504C65.4582 56.8003 65.2141 56.6481 64.8892 56.5938H67.9996C67.6203 56.6618 67.2709 56.8307 66.9526 57.1011C66.6338 57.3715 66.4004 57.6825 66.2515 58.0341L62.6738 66.776L59.95 60.6504L57.4498 66.776L53.6688 58.2365C53.506 57.8712 53.3266 57.547 53.1303 57.2629C52.9335 56.9788 52.6392 56.7561 52.2461 56.5938V56.5943Z" fill="#DABC75"/>
<path d="M20.7537 68.6559C20.6609 68.6846 20.5999 68.7341 20.5694 68.804C20.5389 68.8738 20.5239 68.952 20.5239 69.038V71.6071C20.5239 71.6931 20.5401 71.7725 20.5718 71.8459C20.6035 71.9193 20.6645 71.97 20.7537 71.9987H19.9688C20.0615 71.97 20.1225 71.9193 20.153 71.8459C20.1835 71.7725 20.1985 71.6931 20.1985 71.6071V69.038C20.1985 68.952 20.1835 68.8738 20.153 68.804C20.1225 68.7341 20.0615 68.6846 19.9688 68.6559H20.7537Z" fill="#DABC75"/>
<path d="M27.4556 68.6559H29.8774L30.0018 69.2003C29.9252 69.0571 29.8205 68.9419 29.6883 68.8541C29.5561 68.7664 29.4065 68.7228 29.2408 68.7228H28.8244V71.6071C28.8244 71.6901 28.8406 71.7689 28.8723 71.8435C28.904 71.9181 28.965 71.97 29.0542 71.9987H28.2692C28.362 71.97 28.423 71.9193 28.4535 71.8459C28.484 71.7725 28.499 71.6931 28.499 71.6071L28.5038 68.7228H28.0969C27.9246 68.7228 27.7745 68.7664 27.647 68.8541C27.5196 68.9419 27.4155 69.0589 27.3359 69.2051L27.4556 68.6559Z" fill="#DABC75"/>
<path d="M36.3945 72C36.4681 71.9743 36.5381 71.9254 36.6051 71.852C36.6721 71.7785 36.72 71.7069 36.7487 71.6371L37.9069 68.6143L39.0508 71.6275C39.0795 71.7039 39.1202 71.7785 39.1729 71.852C39.2255 71.9254 39.2931 71.9743 39.3763 72H38.5339C38.5884 71.9809 38.6338 71.9445 38.6703 71.8902C38.7068 71.8358 38.7254 71.7803 38.7254 71.723C38.7254 71.6878 38.7092 71.6227 38.6775 71.5272C38.6458 71.4317 38.6081 71.3291 38.565 71.2192C38.522 71.1094 38.4807 71.0043 38.4406 70.904C38.4005 70.8038 38.3712 70.7315 38.3521 70.6868H37.1795L36.8684 71.4938C36.8558 71.5254 36.845 71.5583 36.8372 71.5917C36.8295 71.6251 36.8253 71.6591 36.8253 71.6944C36.8253 71.7773 36.8516 71.8424 36.9043 71.8902C36.9569 71.9379 37.0197 71.9743 37.0933 72H36.3945ZM38.3233 70.6342L37.7634 69.1443L37.1938 70.6342H38.3233Z" fill="#DABC75"/>
<path d="M46.4021 68.6559C46.3094 68.6846 46.2484 68.7341 46.2178 68.804C46.1873 68.8738 46.1724 68.952 46.1724 69.038V71.9462H47.0339C47.2253 71.9462 47.3857 71.8966 47.5149 71.7981C47.6441 71.6996 47.7548 71.5707 47.8475 71.4113L47.7135 71.9987H45.6172C45.7099 71.97 45.7709 71.9193 45.8015 71.8459C45.832 71.7725 45.8469 71.6931 45.8469 71.6071V69.038C45.8469 68.952 45.832 68.8738 45.8015 68.804C45.7709 68.7341 45.7099 68.6846 45.6172 68.6559H46.4021Z" fill="#DABC75"/>
<path d="M54.8865 68.6559C54.7938 68.6846 54.7327 68.7341 54.7022 68.804C54.6717 68.8738 54.6568 68.952 54.6568 69.038V71.6071C54.6568 71.6931 54.6729 71.7725 54.7046 71.8459C54.7363 71.9193 54.7973 71.97 54.8865 71.9987H54.1016C54.1943 71.97 54.2553 71.9193 54.2858 71.8459C54.3163 71.7725 54.3313 71.6931 54.3313 71.6071V69.038C54.3313 68.952 54.3163 68.8738 54.2858 68.804C54.2553 68.7341 54.1943 68.6846 54.1016 68.6559H54.8865Z" fill="#DABC75"/>
<path d="M61.1562 72C61.2298 71.9743 61.2998 71.9254 61.3668 71.852C61.4338 71.7785 61.4817 71.7069 61.5104 71.6371L62.6687 68.6143L63.8125 71.6275C63.8413 71.7039 63.8819 71.7785 63.9346 71.852C63.9872 71.9254 64.0548 71.9743 64.138 72H63.2956C63.3501 71.9809 63.3956 71.9445 63.4321 71.8902C63.4685 71.8358 63.4871 71.7803 63.4871 71.723C63.4871 71.6878 63.4709 71.6227 63.4392 71.5272C63.4075 71.4317 63.3698 71.3291 63.3268 71.2192C63.2837 71.1094 63.2424 71.0043 63.2023 70.904C63.1622 70.8038 63.1329 70.7315 63.1138 70.6868H61.9412L61.6301 71.4938C61.6175 71.5254 61.6067 71.5583 61.599 71.5917C61.5912 71.6251 61.587 71.6591 61.587 71.6944C61.587 71.7773 61.6133 71.8424 61.666 71.8902C61.7186 71.9379 61.7814 71.9743 61.855 72H61.1562ZM63.0851 70.6342L62.5251 69.1443L61.9555 70.6342H63.0851Z" fill="#DABC75"/>
</g>
<defs>
<clipPath id="clip0_1_402">
<rect width="68" height="72" fill="white"/>
</clipPath>
</defs>
</svg>
