<svg width="60" height="64" viewBox="0 0 60 64" fill="none" xmlns="http://www.w3.org/2000/svg">
<g clip-path="url(#clip0_1_440)">
<path fill-rule="evenodd" clip-rule="evenodd" d="M38.8828 19.3566C38.9013 19.4075 38.9198 19.4584 38.9388 19.5094C38.9282 19.4547 38.9177 19.4006 38.9071 19.3459C38.8992 19.3502 38.8913 19.3534 38.8828 19.3566Z" fill="#EAEBEF"/>
<path fill-rule="evenodd" clip-rule="evenodd" d="M42.0059 12.0626C40.4761 11.6699 39.271 12.1156 38.6016 12.4043C36.2483 7.11953 37.1985 8.05391 31.3079 4.45328C30.2051 3.77943 28.7751 2.97398 27.8297 2.34576C26.3738 1.37901 23.9207 -0.542811 23.2693 0.145372C22.3608 1.10469 28.2868 5.3033 29.8214 6.2727L28.6722 4.26598C30.5762 5.1213 34.0534 6.83513 35.3974 8.40251C37.6113 10.9849 37.8394 14.3303 38.1492 17.758C38.1492 17.758 38.6365 17.1255 39.2351 16.4283C39.537 20.6603 39.8437 22.3132 37.7449 25.3535C36.5276 27.1182 34.4773 28.1306 31.8722 29.0846C32.9844 27.6276 34.2302 24.6228 34.6673 23.2804C34.6673 23.2804 34.8943 24.1777 34.8727 25.6299C35.1714 25.562 36.8596 19.1105 32.2618 13.7928C33.4828 18.1963 34.2302 20.1711 32.3885 24.6844C29.2328 34.0876 17.2969 44.5292 16.3857 47.4963C18.037 47.0018 22.288 42.0779 23.4081 40.5206L29.4318 32.9819C28.4716 34.7779 24.144 42.1124 23.8415 44.3127C26.0528 42.0137 30.0895 32.7113 33.4806 29.9803C33.4806 29.9803 34.974 28.8681 35.3884 28.606C38.4997 26.6354 39.4209 24.7783 39.9899 23.0236C40.2534 22.2123 40.4043 21.3692 40.4497 20.5171C40.4851 19.8549 40.4893 19.1917 40.4629 18.5284C40.53 17.6757 40.6962 16.8974 41.4179 16.527C42.6547 15.8924 44.3766 16.1837 44.3766 16.1837C44.3766 16.1837 44.3935 12.6765 42.0054 12.0636L42.0059 12.0626Z" fill="#EAEBEF"/>
<path fill-rule="evenodd" clip-rule="evenodd" d="M25.9263 28.4772C27.1642 28.8258 29.6363 24.1417 29.6363 21.563C29.6363 21.563 24.6885 28.1286 25.9263 28.4772Z" fill="#EAEBEF"/>
<path fill-rule="evenodd" clip-rule="evenodd" d="M23.2622 28.564C25.7274 27.0157 27.518 22.4897 27.518 22.4897C27.518 22.4897 23.1034 26.7096 22.6077 27.9873C22.4461 28.4038 22.8848 28.8012 23.2622 28.564Z" fill="#EAEBEF"/>
<path fill-rule="evenodd" clip-rule="evenodd" d="M31.9426 9.5996C30.8874 8.41796 23.8207 3.7121 23.1392 5.11553C22.3568 6.72695 31.9426 9.5996 31.9426 9.5996Z" fill="#EAEBEF"/>
<path fill-rule="evenodd" clip-rule="evenodd" d="M19.044 28.6798C20.0306 29.4916 23.6291 25.9584 24.6881 23.8445C24.3571 23.9681 17.8573 27.7035 19.044 28.6798Z" fill="#EAEBEF"/>
<path fill-rule="evenodd" clip-rule="evenodd" d="M21.7944 24.7068C21.7944 24.7068 14.4558 26.5055 15.3395 27.8511C15.9629 28.8003 20.7154 25.8773 21.7944 24.7068Z" fill="#EAEBEF"/>
<path fill-rule="evenodd" clip-rule="evenodd" d="M25.1157 10.1571C24.9135 11.7712 31.8256 11.7054 31.8256 11.7054C30.7672 10.8633 25.3179 8.54303 25.1157 10.1571Z" fill="#EAEBEF"/>
<path fill-rule="evenodd" clip-rule="evenodd" d="M30.2449 25.3534C31.3999 25.3534 31.9257 23.0962 31.5208 20.8396C31.5208 20.8396 29.2135 25.3534 30.2449 25.3534Z" fill="#EAEBEF"/>
<path fill-rule="evenodd" clip-rule="evenodd" d="M28.0776 16.5583C27.7714 16.7016 27.8041 17.1462 28.1256 17.2508C29.3941 17.662 32.27 16.1089 32.27 16.1089C32.27 16.1089 29.0964 16.0824 28.0776 16.5583Z" fill="#EAEBEF"/>
<path fill-rule="evenodd" clip-rule="evenodd" d="M29.0571 19.6868C29.5956 20.5798 32.6298 18.156 32.6298 18.156C32.3643 18.182 28.5208 18.7975 29.0571 19.6868Z" fill="#EAEBEF"/>
<path fill-rule="evenodd" clip-rule="evenodd" d="M26.584 13.9664C26.584 15.3279 31.9758 14.021 31.8211 13.9913C31.8211 13.9913 26.584 12.6049 26.584 13.9664Z" fill="#EAEBEF"/>
<path d="M0 56.7276C0.262885 57.4125 0.675688 57.9867 1.23788 58.4493C1.80007 58.912 2.45781 59.1434 3.2111 59.1434C3.46237 59.1434 3.7432 59.1253 4.05413 59.0892C4.36505 59.0532 4.65485 58.9783 4.92407 58.8637C5.19329 58.7497 5.42028 58.5873 5.60557 58.3772C5.79085 58.1671 5.88376 57.8933 5.88376 57.5569C5.88376 57.1722 5.74018 56.857 5.45301 56.6103C5.16584 56.3641 4.81005 56.1444 4.38563 55.9523C3.96122 55.7603 3.50038 55.5799 3.0047 55.4117C2.50849 55.2435 2.04765 55.045 1.62323 54.8169C1.19882 54.5887 0.843026 54.3091 0.555859 53.9785C0.268691 53.648 0.125108 53.2304 0.125108 52.7253C0.125108 52.3045 0.208513 51.9384 0.376379 51.6253C0.543717 51.3128 0.76226 51.0512 1.03095 50.8411C1.30017 50.631 1.61373 50.4713 1.97269 50.363C2.33165 50.2548 2.69589 50.2007 3.06699 50.2007C3.24647 50.2007 3.47346 50.2187 3.74848 50.2548C4.02351 50.2909 4.30751 50.3424 4.60048 50.4081C4.89346 50.4745 5.17746 50.5434 5.45248 50.6156C5.72751 50.6878 5.94288 50.7599 6.09808 50.8321V52.5268C5.99039 52.2021 5.83203 51.9081 5.62299 51.6434C5.41342 51.3791 5.16848 51.1536 4.88765 50.9674C4.60629 50.7812 4.3017 50.6337 3.97283 50.5259C3.64396 50.4177 3.31826 50.3636 2.9952 50.3636C2.76768 50.3636 2.52274 50.397 2.25986 50.4628C1.99645 50.5291 1.75468 50.6283 1.53349 50.7605C1.31178 50.8926 1.12967 51.0581 0.986609 51.256C0.843554 51.454 0.771234 51.6917 0.771234 51.9681C0.771234 52.4011 0.914818 52.7587 1.20198 53.041C1.48915 53.3232 1.84442 53.5668 2.26936 53.7711C2.69378 53.9753 3.15726 54.1616 3.65927 54.3298C4.16128 54.4985 4.62476 54.6906 5.04918 54.9065C5.4736 55.123 5.82939 55.3873 6.11656 55.6998C6.40372 56.0123 6.54731 56.415 6.54731 56.908C6.54731 57.4009 6.4544 57.7707 6.26911 58.0891C6.08383 58.408 5.84153 58.6664 5.54275 58.8643C5.24344 59.0627 4.90296 59.2038 4.52024 59.2882C4.13753 59.372 3.74901 59.4145 3.35416 59.4145C2.82786 59.4145 2.26303 59.363 1.65913 59.2611C1.05523 59.1593 0.502015 59.0298 0 58.8733V56.7276H0Z" fill="#EAEBEF"/>
<path d="M7.31836 63.9883C7.66518 63.8801 7.89797 63.5288 8.0178 63.2524C8.1371 62.976 8.19728 62.6693 8.19728 62.3329V52.5269C8.19728 52.2988 8.15505 52.0881 8.07165 51.896C7.98771 51.704 7.80823 51.5957 7.53373 51.5713L9.20184 50.309V56.7096C9.20184 57.0465 9.28524 57.3676 9.45311 57.6742C9.62045 57.9809 9.83582 58.2483 10.0987 58.4765C10.3616 58.7047 10.6577 58.8851 10.9866 59.0172C11.3155 59.1498 11.6412 59.2156 11.9642 59.2156C12.5259 59.2156 12.9984 59.0713 13.3811 58.7827C13.7638 58.494 14.0715 58.1306 14.3049 57.6918C14.5382 57.2529 14.7087 56.7754 14.8159 56.2586C14.9235 55.7418 14.9774 55.2553 14.9774 54.7984C14.9774 54.3416 14.9262 53.855 14.8248 53.3738C14.7229 52.893 14.5556 52.4542 14.3228 52.0579C14.0895 51.6615 13.7849 51.3368 13.408 51.0842C13.0311 50.8317 12.5676 50.7059 12.0181 50.7059C11.5161 50.7059 11.0911 50.7929 10.7443 50.9675C10.3975 51.1421 10.0449 51.4031 9.68591 51.7517C9.97307 51.3071 10.3553 50.9495 10.834 50.6789C11.3123 50.4083 11.8207 50.2729 12.3586 50.2729C12.9561 50.2729 13.4856 50.3812 13.9459 50.5977C14.4062 50.8142 14.7979 51.1086 15.121 51.4811C15.444 51.8536 15.689 52.2924 15.8563 52.797C16.0236 53.3016 16.1076 53.837 16.1076 54.4015C16.1076 55.0626 16.0205 55.6967 15.8473 56.3037C15.6737 56.9107 15.4108 57.4424 15.0581 57.8992C14.7055 58.3561 14.26 58.7195 13.7216 58.9901C13.1836 59.2607 12.5555 59.396 11.8381 59.396C11.5509 59.396 11.2912 59.3748 11.0579 59.3329C10.8245 59.291 10.6065 59.2246 10.4033 59.1344C10.2001 59.0442 10.0026 58.9302 9.81154 58.7917C9.61992 58.6537 9.41669 58.494 9.20184 58.3141V62.3509C9.20184 62.6995 9.25568 63.0057 9.36337 63.2704C9.47106 63.5347 9.70438 63.8801 10.0628 63.9883H7.31836Z" fill="#EAEBEF"/>
<path d="M22.5112 54.005V53.0494C22.5112 52.7608 22.4811 52.4663 22.4215 52.166C22.3613 51.8656 22.2631 51.5924 22.1253 51.3457C21.9876 51.0995 21.8023 50.8978 21.5695 50.7418C21.3362 50.5859 21.0464 50.5073 20.6995 50.5073C20.5438 50.5073 20.3585 50.5285 20.1437 50.5705C19.9283 50.6129 19.7282 50.6787 19.543 50.7689C19.3577 50.8591 19.1993 50.9732 19.0679 51.1117C18.9359 51.2502 18.8704 51.4215 18.8704 51.6258C18.8704 51.7579 18.8852 51.8842 18.9153 52.0041C18.9449 52.1246 18.9602 52.2509 18.9602 52.383C18.9602 52.8276 18.7327 53.0499 18.2787 53.0499C18.0749 53.0499 17.9197 52.9778 17.8126 52.8335C17.7054 52.6891 17.651 52.5209 17.651 52.3289C17.651 52.0163 17.7703 51.7367 18.01 51.4905C18.2491 51.2443 18.5389 51.0337 18.8799 50.8596C19.2209 50.6856 19.5736 50.5503 19.9383 50.4537C20.3031 50.3577 20.6109 50.3094 20.8621 50.3094C21.4718 50.3094 21.9533 50.3938 22.3059 50.562C22.6585 50.7307 22.9246 50.9647 23.104 51.265C23.2835 51.5659 23.397 51.9293 23.4451 52.3559C23.4926 52.7825 23.5168 53.2547 23.5168 53.771C24.0548 53.6389 24.5842 53.4797 25.1042 53.293C25.6241 53.1067 26.1293 52.8754 26.6197 52.5989C26.6197 52.5029 26.6134 52.3888 26.6018 52.2562C26.5896 52.124 26.5627 52.001 26.521 51.8863C26.4788 51.7723 26.4191 51.673 26.3415 51.5887C26.2634 51.5048 26.1589 51.4624 26.0274 51.4624L27.6417 50.3264V51.949C27.8449 51.8046 28.0482 51.6364 28.2514 51.4444C28.4546 51.2523 28.67 51.0719 28.897 50.9031C29.124 50.7349 29.3605 50.5938 29.6054 50.4797C29.8504 50.3657 30.1048 50.3083 30.3677 50.3083C30.5588 50.3083 30.7293 50.3534 30.8787 50.4437C31.0281 50.5339 31.103 50.6814 31.103 50.8856C31.103 51.3064 30.8818 51.5165 30.4395 51.5165C30.3434 51.5165 30.2568 51.4985 30.1792 51.4624C30.1011 51.4263 30.0235 51.3902 29.9459 51.3542C29.8678 51.3181 29.7812 51.282 29.6857 51.2459C29.5896 51.2098 29.4761 51.1918 29.3446 51.1918C29.1773 51.1918 29.0036 51.2342 28.8247 51.3181C28.6452 51.4024 28.49 51.4985 28.3586 51.6067C27.8924 52.0031 27.4168 52.3432 26.9328 52.6255C26.4487 52.9083 25.9488 53.1513 25.4352 53.3556C24.921 53.5604 24.3915 53.7312 23.8478 53.8697C23.3036 54.0082 22.7387 54.143 22.1528 54.2751C21.7701 54.3594 21.3663 54.4645 20.9418 54.5908C20.5174 54.7171 20.1284 54.8853 19.7758 55.0954C19.4231 55.306 19.1302 55.5735 18.8968 55.8976C18.6635 56.2224 18.5468 56.6309 18.5468 57.1239C18.5468 57.6889 18.7142 58.1336 19.0489 58.4578C19.3835 58.7825 19.8259 58.9443 20.376 58.9443C20.7465 58.9443 21.0844 58.8785 21.3895 58.7459C21.6946 58.6138 21.996 58.4456 22.2953 58.2413C21.9844 58.626 21.6107 58.9083 21.1741 59.0887C20.7375 59.2691 20.2741 59.3593 19.7842 59.3593C19.4495 59.3593 19.1296 59.3115 18.8245 59.2149C18.5194 59.1189 18.2533 58.9778 18.0264 58.791C17.7988 58.6048 17.6199 58.3734 17.4884 58.097C17.3565 57.8205 17.291 57.5022 17.291 57.1414C17.291 56.6124 17.4884 56.1651 17.8828 55.7979C18.2776 55.4313 18.7527 55.1251 19.3086 54.8784C19.8644 54.6322 20.4388 54.4396 21.0305 54.3016C21.6223 54.1637 22.1158 54.0644 22.5102 54.004L22.5112 54.005ZM22.5112 54.5818C22.6786 54.534 22.8459 54.4916 23.0132 54.4555C23.1806 54.4194 23.3479 54.3833 23.5153 54.3472V57.6285C23.5153 57.9049 23.5749 58.1601 23.6947 58.3946C23.814 58.6292 24.0357 58.7459 24.3583 58.7459C24.4897 58.7459 24.6122 58.731 24.7262 58.7008C24.8397 58.6711 24.9442 58.6079 25.0403 58.5114C25.0044 58.6196 24.9416 58.7247 24.8519 58.8271C24.7621 58.9295 24.6576 59.0197 24.5378 59.0977C24.4179 59.1762 24.2897 59.2393 24.1519 59.2871C24.0141 59.3349 23.8916 59.3593 23.784 59.3593C23.5205 59.3593 23.3057 59.3115 23.1384 59.2149C22.971 59.1189 22.839 58.9926 22.7435 58.8361C22.6474 58.6801 22.5851 58.4965 22.555 58.2864C22.525 58.0763 22.5102 57.8566 22.5102 57.6285V54.5812L22.5112 54.5818ZM25.7577 59.3237C26.1045 59.1916 26.3347 58.999 26.4482 58.7464C26.5617 58.4939 26.6187 58.1935 26.6187 57.8449V53.2473C26.6783 53.2112 26.7559 53.1661 26.852 53.112C26.9475 53.0579 27.0463 52.9979 27.1481 52.9316C27.2495 52.8658 27.3456 52.7995 27.4353 52.7332C27.525 52.6674 27.5937 52.6101 27.6417 52.5618V57.8444C27.6417 58.193 27.6982 58.4875 27.8122 58.7278C27.9257 58.9682 28.1501 59.1667 28.4847 59.3227H25.7582L25.7577 59.3237Z" fill="#EAEBEF"/>
<path d="M31.6236 59.3236C31.9704 59.2154 32.2006 59.026 32.314 58.7554C32.4275 58.4848 32.4845 58.1818 32.4845 57.8449V52.5623C32.4845 52.4662 32.4782 52.3548 32.4666 52.2285C32.4545 52.1022 32.4275 51.9791 32.3858 51.8587C32.3436 51.7388 32.284 51.6395 32.2064 51.561C32.1282 51.483 32.0237 51.4438 31.8923 51.4438L33.5065 50.3078V57.8443C33.5065 58.1807 33.5662 58.4842 33.686 58.7548C33.8053 59.0254 34.0328 59.2149 34.3675 59.3231H31.623L31.6236 59.3236ZM35.2111 51.1923C34.9835 51.1923 34.7655 51.2374 34.5565 51.3276C34.3469 51.4178 34.1468 51.5233 33.9558 51.6433C34.1231 51.4751 34.2878 51.3127 34.4488 51.1562C34.6103 51.0002 34.7835 50.8559 34.9688 50.7237C35.154 50.5916 35.3515 50.4866 35.5605 50.408C35.7696 50.33 36.0002 50.2908 36.251 50.2908C36.4305 50.2908 36.5978 50.3391 36.753 50.4351C36.9082 50.5317 36.9863 50.6818 36.9863 50.8861C36.9863 51.0904 36.9235 51.2437 36.7979 51.3456C36.6722 51.448 36.5139 51.4989 36.3228 51.4989C36.1554 51.4989 35.9881 51.448 35.8208 51.3456C35.6534 51.2437 35.4502 51.1923 35.2111 51.1923Z" fill="#EAEBEF"/>
<path d="M37.1299 54.8164C37.1299 54.1914 37.2492 53.6056 37.4888 53.0586C37.728 52.5115 38.0505 52.0308 38.4575 51.6164C38.864 51.2015 39.3391 50.8741 39.8833 50.6338C40.4276 50.3934 41.0103 50.2729 41.6322 50.2729C42.254 50.2729 42.84 50.3934 43.39 50.6338C43.9401 50.8741 44.4183 51.1988 44.8248 51.6074C45.2313 52.016 45.5512 52.4972 45.7845 53.0496C46.0178 53.6024 46.1345 54.1914 46.1345 54.8164C46.1345 55.4415 46.0178 56.0273 45.7845 56.5743C45.5512 57.1214 45.2313 57.6021 44.8248 58.0165C44.4183 58.4314 43.9427 58.7588 43.399 58.9991C42.8548 59.24 42.272 59.3599 41.6501 59.3599C41.0283 59.3599 40.4423 59.24 39.8923 58.9991C39.3422 58.7588 38.8634 58.4346 38.4575 58.0255C38.051 57.6169 37.728 57.1362 37.4888 56.5833C37.2497 56.0305 37.1299 55.4415 37.1299 54.8164ZM38.1883 54.4737C38.1883 54.9905 38.2717 55.5253 38.4396 56.0782C38.6069 56.6311 38.846 57.1298 39.1569 57.5745C39.4679 58.0191 39.8532 58.3858 40.3141 58.6744C40.7744 58.9631 41.2975 59.1068 41.8835 59.1068C42.4097 59.1068 42.8669 58.9896 43.2559 58.7551C43.6445 58.5205 43.9702 58.2144 44.2336 57.8355C44.4965 57.4567 44.6939 57.0365 44.8253 56.5732C44.9568 56.1106 45.0228 55.6447 45.0228 55.1762C45.0228 54.6477 44.9388 54.1097 44.7715 53.5626C44.6041 53.0161 44.365 52.5168 44.0541 52.0664C43.7432 51.6159 43.3573 51.2492 42.897 50.9664C42.4367 50.6842 41.913 50.543 41.3276 50.543C40.8134 50.543 40.3589 50.6603 39.9641 50.8948C39.5692 51.1293 39.2404 51.4355 38.9775 51.8143C38.7141 52.1932 38.5172 52.6139 38.3857 53.0766C38.2537 53.5393 38.1883 54.0052 38.1883 54.4737Z" fill="#EAEBEF"/>
<path d="M46.0986 50.3089H48.8431C48.6636 50.381 48.529 50.4925 48.4393 50.6426C48.3495 50.7928 48.3046 50.9642 48.3046 51.1562C48.3046 51.2528 48.3643 51.4597 48.4841 51.7781C48.6034 52.097 48.7592 52.4721 48.9502 52.9051C49.1413 53.3375 49.3509 53.8007 49.5779 54.2931C49.8049 54.7861 50.0203 55.2578 50.2235 55.7082C50.4267 56.1592 50.612 56.5588 50.7794 56.9074C50.9467 57.256 51.0602 57.5022 51.1204 57.6465L52.7526 53.572L51.9634 51.7691C51.8198 51.4444 51.6614 51.1562 51.4883 50.9037C51.3146 50.6511 51.0549 50.4532 50.7081 50.3089H53.4525C53.2731 50.381 53.1385 50.4925 53.0487 50.6426C52.959 50.7928 52.9141 50.9642 52.9141 51.1562C52.9141 51.2528 52.9738 51.4597 53.0936 51.7781C53.2129 52.097 53.3686 52.4721 53.5597 52.9051C53.7508 53.3375 53.9604 53.8007 54.1874 54.2931C54.4143 54.7861 54.6297 55.2578 54.8329 55.7082C55.0362 56.1592 55.2215 56.5588 55.3888 56.9074C55.5561 57.256 55.6696 57.5022 55.7298 57.6465L58.0256 51.9309C58.0852 51.7749 58.1153 51.6184 58.1153 51.4624C58.1153 51.186 58.0435 50.9366 57.8999 50.7143C57.7564 50.4919 57.541 50.3566 57.2543 50.3083H59.9988C59.6641 50.3688 59.3558 50.519 59.075 50.7594C58.7936 50.9997 58.5878 51.2762 58.4563 51.5887L55.2996 59.3593L52.8962 53.9143L50.6901 59.3593L47.3539 51.7685C47.2103 51.4438 47.052 51.1557 46.8788 50.9031C46.7052 50.6506 46.4455 50.4527 46.0986 50.3083V50.3089Z" fill="#EAEBEF"/>
<path d="M18.3117 61.0286C18.2299 61.054 18.1761 61.0981 18.1491 61.1602C18.1222 61.2222 18.109 61.2917 18.109 61.3681V63.6518C18.109 63.7282 18.1233 63.7988 18.1512 63.8641C18.1792 63.9293 18.2331 63.9744 18.3117 63.9999H17.6191C17.701 63.9744 17.7548 63.9293 17.7817 63.8641C17.8086 63.7988 17.8218 63.7282 17.8218 63.6518V61.3681C17.8218 61.2917 17.8086 61.2222 17.7817 61.1602C17.7548 61.0981 17.701 61.054 17.6191 61.0286H18.3117Z" fill="#EAEBEF"/>
<path d="M24.2237 61.0286H26.3606L26.4704 61.5125C26.4028 61.3851 26.3105 61.2827 26.1938 61.2047C26.0771 61.1267 25.9452 61.088 25.7989 61.088H25.4315V63.6518C25.4315 63.7256 25.4458 63.7956 25.4738 63.862C25.5017 63.9283 25.5556 63.9744 25.6342 63.9999H24.9417C25.0235 63.9744 25.0773 63.9293 25.1042 63.8641C25.1312 63.7988 25.1444 63.7282 25.1444 63.6518L25.1486 61.088H24.7896C24.6376 61.088 24.5051 61.1267 24.3927 61.2047C24.2802 61.2827 24.1884 61.3867 24.1182 61.5167L24.2237 61.0286Z" fill="#EAEBEF"/>
<path d="M32.1123 64C32.1772 63.9772 32.239 63.9337 32.2981 63.8684C32.3572 63.8032 32.3995 63.7395 32.4248 63.6774L33.4468 60.9905L34.4561 63.6689C34.4814 63.7368 34.5173 63.8032 34.5638 63.8684C34.6102 63.9337 34.6699 63.9772 34.7433 64H34C34.048 63.983 34.0882 63.9507 34.1204 63.9024C34.1526 63.8541 34.1689 63.8048 34.1689 63.7538C34.1689 63.7225 34.1547 63.6647 34.1267 63.5798C34.0987 63.4949 34.0655 63.4036 34.0275 63.306C33.9894 63.2084 33.953 63.115 33.9177 63.0258C33.8823 62.9367 33.8564 62.8725 33.8395 62.8327H32.8049L32.5304 63.5501C32.5193 63.5782 32.5098 63.6074 32.5029 63.6371C32.4961 63.6668 32.4924 63.697 32.4924 63.7284C32.4924 63.8021 32.5156 63.8599 32.5621 63.9024C32.6085 63.9448 32.6639 63.9772 32.7289 64H32.1123ZM33.8142 62.786L33.3201 61.4616L32.8176 62.786H33.8142Z" fill="#EAEBEF"/>
<path d="M40.9426 61.0286C40.8608 61.054 40.8069 61.0981 40.78 61.1602C40.7531 61.2222 40.7399 61.2917 40.7399 61.3681V63.9532H41.5C41.6689 63.9532 41.8104 63.9092 41.9244 63.8216C42.0385 63.7341 42.1361 63.6195 42.2179 63.4778L42.0997 63.9999H40.25C40.3318 63.9744 40.3857 63.9293 40.4126 63.8641C40.4395 63.7988 40.4527 63.7282 40.4527 63.6518V61.3681C40.4527 61.2917 40.4395 61.2222 40.4126 61.1602C40.3857 61.0981 40.3318 61.054 40.25 61.0286H40.9426Z" fill="#EAEBEF"/>
<path d="M48.4299 61.0286C48.3481 61.054 48.2942 61.0981 48.2673 61.1602C48.2404 61.2222 48.2272 61.2917 48.2272 61.3681V63.6518C48.2272 63.7282 48.2414 63.7988 48.2694 63.8641C48.2974 63.9293 48.3512 63.9744 48.4299 63.9999H47.7373C47.8191 63.9744 47.873 63.9293 47.8999 63.8641C47.9268 63.7988 47.94 63.7282 47.94 63.6518V61.3681C47.94 61.2917 47.9268 61.2222 47.8999 61.1602C47.873 61.0981 47.8191 61.054 47.7373 61.0286H48.4299Z" fill="#EAEBEF"/>
<path d="M53.9619 64C54.0268 63.9772 54.0886 63.9337 54.1477 63.8684C54.2069 63.8032 54.2491 63.7395 54.2744 63.6774L55.2964 60.9905L56.3057 63.6689C56.331 63.7368 56.3669 63.8032 56.4134 63.8684C56.4598 63.9337 56.5195 63.9772 56.5929 64H55.8496C55.8977 63.983 55.9378 63.9507 55.97 63.9024C56.0022 63.8541 56.0185 63.8048 56.0185 63.7538C56.0185 63.7225 56.0043 63.6647 55.9763 63.5798C55.9483 63.4949 55.9151 63.4036 55.8771 63.306C55.8391 63.2084 55.8026 63.115 55.7673 63.0258C55.7319 62.9367 55.706 62.8725 55.6891 62.8327H54.6545L54.38 63.5501C54.3689 63.5782 54.3594 63.6074 54.3525 63.6371C54.3457 63.6668 54.342 63.697 54.342 63.7284C54.342 63.8021 54.3652 63.8599 54.4117 63.9024C54.4581 63.9448 54.5136 63.9772 54.5785 64H53.9619ZM55.6638 62.786L55.1697 61.4616L54.6672 62.786H55.6638Z" fill="#EAEBEF"/>
</g>
<defs>
<clipPath id="clip0_1_440">
<rect width="60" height="64" fill="white"/>
</clipPath>
</defs>
</svg>
