<svg width="32" height="32" viewBox="0 0 32 32" fill="none" xmlns="http://www.w3.org/2000/svg">
<path d="M16.0003 0.319946C7.34111 0.319946 0.320312 7.34075 0.320312 15.9999C0.320312 24.6591 7.34111 31.6799 16.0003 31.6799C24.6595 31.6799 31.6803 24.6591 31.6803 15.9999C31.6803 7.34075 24.6595 0.319946 16.0003 0.319946ZM2.80351 20.2655C2.79391 20.3263 2.74911 20.3711 2.69471 20.3711C2.63711 20.3711 2.59231 20.3263 2.58591 20.2655L2.38751 18.7807L2.58591 17.2671C2.59231 17.2031 2.63711 17.1615 2.69471 17.1615C2.74911 17.1615 2.79391 17.2063 2.80351 17.2671L3.04031 18.7807L2.80351 20.2655ZM3.81471 21.1711C3.80511 21.2351 3.75711 21.2799 3.70271 21.2799C3.64511 21.2799 3.59711 21.2351 3.59071 21.1711L3.32191 18.7807L3.59071 16.3359C3.59711 16.2719 3.64511 16.2271 3.70271 16.2271C3.76031 16.2271 3.80511 16.2719 3.81471 16.3359L4.11871 18.7807L3.81471 21.1711ZM4.90591 21.5743C4.89631 21.6511 4.83871 21.7087 4.76831 21.7087C4.69791 21.7087 4.64031 21.6543 4.63071 21.5743L4.37791 18.7807L4.63071 15.8783C4.63711 15.8015 4.69471 15.7439 4.76831 15.7439C4.83871 15.7439 4.89631 15.8015 4.90591 15.8783L5.19391 18.7807L4.90591 21.5743ZM6.00991 21.6639C6.00351 21.7535 5.93311 21.8207 5.84991 21.8207C5.76671 21.8207 5.69631 21.7535 5.68991 21.6639L5.44991 18.7807L5.68991 15.7983C5.69631 15.7087 5.76671 15.6415 5.84991 15.6415C5.93311 15.6415 6.00031 15.7087 6.00991 15.7983L6.28191 18.7807L6.00991 21.6639ZM7.12031 21.6863C7.11391 21.7887 7.03391 21.8655 6.93791 21.8655C6.83871 21.8655 6.76191 21.7887 6.75551 21.6863L6.52831 18.7775L6.75551 16.0127C6.76191 15.9103 6.84191 15.8335 6.93791 15.8335C7.03391 15.8335 7.11391 15.9103 7.12031 16.0127L7.37631 18.7807L7.12031 21.6863ZM8.24031 21.6895C8.23391 21.8015 8.14431 21.8911 8.03551 21.8911C7.92671 21.8911 7.83391 21.8015 7.82751 21.6863L7.61631 18.7775L7.82751 14.2783C7.83391 14.1631 7.92351 14.0735 8.03551 14.0735C8.14431 14.0735 8.23391 14.1631 8.24031 14.2783L8.48031 18.7775L8.24031 21.6895ZM9.35071 21.6863C9.34431 21.8111 9.24511 21.9103 9.12031 21.9103C8.99871 21.9103 8.89631 21.8111 8.89311 21.6831L8.69471 18.7935L8.89311 13.2671C8.89951 13.1391 8.99871 13.0399 9.12351 13.0399C9.24511 13.0399 9.34751 13.1391 9.35391 13.2671L9.57791 18.7935L9.35071 21.6863ZM10.5027 21.6415C10.4963 21.7791 10.3875 21.8911 10.2499 21.8911C10.1123 21.8911 10.0035 21.7823 9.99711 21.6415L9.81151 18.7807C9.81151 18.7807 9.99711 12.7935 9.99711 12.7903C10.0035 12.6495 10.1123 12.5407 10.2499 12.5407C10.3875 12.5407 10.4963 12.6495 10.5027 12.7903L10.7107 18.7807L10.5027 21.6415ZM11.6483 21.6223C11.6451 21.7759 11.5235 21.8975 11.3731 21.8975C11.2227 21.8975 11.1011 21.7759 11.0979 21.6255L10.9251 18.7839L11.0979 12.5919C11.1043 12.4383 11.2227 12.3167 11.3731 12.3167C11.5235 12.3167 11.6451 12.4383 11.6483 12.5919L11.8403 18.7839L11.6483 21.6223ZM12.8035 21.5967C12.8003 21.7599 12.6691 21.8911 12.5059 21.8911C12.3427 21.8911 12.2115 21.7599 12.2083 21.5935L12.0515 18.7775L12.2083 12.7455C12.2115 12.5791 12.3427 12.4479 12.5091 12.4479C12.6723 12.4479 12.8035 12.5791 12.8067 12.7455L12.9859 18.7807L12.8035 21.5967ZM13.9651 21.5807C13.9619 21.7599 13.8211 21.9007 13.6419 21.9007C13.4659 21.9007 13.3219 21.7599 13.3187 21.5807L13.1747 18.7839L13.3187 12.9695C13.3219 12.7903 13.4659 12.6495 13.6419 12.6495C13.8179 12.6495 13.9619 12.7903 13.9651 12.9695L14.1251 18.7839L13.9651 21.5807ZM15.1523 21.2863L15.1363 21.5615C15.1331 21.6575 15.0947 21.7407 15.0339 21.8047C14.9699 21.8655 14.8867 21.9039 14.7939 21.9039C14.6883 21.9039 14.5923 21.8559 14.5283 21.7791C14.4803 21.7215 14.4515 21.6511 14.4483 21.5743C14.4483 21.5711 14.4483 21.5679 14.4483 21.5615C14.4483 21.5615 14.3171 18.7839 14.3171 18.7807L14.4483 11.9295V11.8655C14.4515 11.7439 14.5123 11.6383 14.6083 11.5775C14.6627 11.5423 14.7267 11.5199 14.7939 11.5199C14.8643 11.5199 14.9315 11.5423 14.9859 11.5775C15.0787 11.6383 15.1395 11.7439 15.1395 11.8623L15.2835 18.7807L15.1523 21.2863ZM16.3043 21.5231V21.5199C16.3011 21.7215 16.1347 21.8879 15.9363 21.8879C15.7347 21.8879 15.5683 21.7215 15.5683 21.5231L15.4947 20.1727L15.4179 18.7839L15.5683 11.2767V11.2383C15.5683 11.1231 15.6227 11.0207 15.7059 10.9535C15.7699 10.9023 15.8499 10.8703 15.9395 10.8703C16.0067 10.8703 16.0739 10.8895 16.1283 10.9247C16.2339 10.9887 16.3075 11.1071 16.3107 11.2383L16.4739 18.7839L16.3043 21.5231ZM26.2659 21.8943C26.2659 21.8943 16.9923 21.8943 16.9827 21.8943C16.7811 21.8751 16.6243 21.7151 16.6211 21.5103V10.8799C16.6243 10.6847 16.6915 10.5855 16.9443 10.4863C17.5939 10.2335 18.3299 10.0863 19.0851 10.0863C22.1731 10.0863 24.7043 12.4543 24.9699 15.4719C25.3699 15.3055 25.8051 15.2127 26.2659 15.2127C28.1155 15.2127 29.6131 16.7135 29.6131 18.5631C29.6131 20.4127 28.1155 21.8943 26.2659 21.8943Z" fill="#F5F5F5"/>
</svg>
