<svg width="32" height="32" viewBox="0 0 32 32" fill="none" xmlns="http://www.w3.org/2000/svg">
<g clip-path="url(#clip0_1108_5046)">
<path d="M15.9979 0.0527344C7.18859 0.0527344 0.046875 7.19426 0.046875 16.0036C0.046875 24.8133 7.18859 31.9543 15.9979 31.9543C24.8082 31.9543 31.9492 24.8133 31.9492 16.0036C31.9492 7.19483 24.8082 0.0534963 15.9977 0.0534963L15.9979 0.0527344ZM23.313 23.0584C23.0273 23.527 22.4139 23.6756 21.9454 23.388C18.2002 21.1004 13.4855 20.5823 7.93316 21.8508C7.39811 21.9727 6.86478 21.6375 6.74288 21.1023C6.6204 20.567 6.9543 20.0337 7.49068 19.9118C13.5669 18.523 18.7789 19.1213 22.9834 21.6908C23.452 21.9784 23.6006 22.5899 23.313 23.0584ZM25.2653 18.7146C24.9053 19.3004 24.1396 19.4851 23.5549 19.1251C19.2673 16.4891 12.7314 15.7259 7.66002 17.2653C7.0023 17.464 6.30764 17.0933 6.10802 16.4367C5.90992 15.779 6.28078 15.0857 6.93735 14.8857C12.7303 13.128 19.932 13.9794 24.8558 17.0051C25.4406 17.3651 25.6253 18.1308 25.2653 18.7148V18.7146ZM25.433 14.192C20.292 11.1384 11.8101 10.8577 6.90173 12.3474C6.11354 12.5864 5.28002 12.1415 5.04116 11.3533C4.8023 10.5647 5.24687 9.73178 6.03564 9.49216C11.6701 7.78169 21.0368 8.11216 26.9556 11.6259C27.6661 12.0466 27.8985 12.9623 27.4775 13.6703C27.0585 14.3792 26.1404 14.6129 25.4337 14.192H25.433Z" fill="#F5F5F5"/>
</g>
<defs>
<clipPath id="clip0_1108_5046">
<rect width="32" height="32" fill="white"/>
</clipPath>
</defs>
</svg>
